<svg width="34" height="34" viewBox="0 0 34 34" fill="none" xmlns="http://www.w3.org/2000/svg">
<path d="M17 1.41669C18.5029 1.41669 19.9442 2.01371 21.0069 3.07642C22.0696 4.13912 22.6666 5.58046 22.6666 7.08335L22.6638 7.16127L22.7063 7.13577C23.9001 6.44323 25.3068 6.21382 26.6588 6.49119L26.9946 6.57052C27.7101 6.764 28.3804 7.09703 28.9668 7.55046C29.5532 8.00388 30.0442 8.56876 30.4116 9.2126C31.1589 10.5131 31.3616 12.0563 30.9754 13.5056C30.5893 14.955 29.6456 16.1928 28.3503 16.949L28.254 17L28.3546 17.0553C29.6032 17.7854 30.5263 18.9643 30.9357 20.3516C31.345 21.7389 31.2097 23.2301 30.5575 24.5211L30.4144 24.7846C30.0469 25.4293 29.5554 25.995 28.9682 26.4489C28.3811 26.9028 27.7099 27.236 26.9934 27.4293C26.2768 27.6227 25.5291 27.6723 24.7934 27.5753C24.0576 27.4783 23.3483 27.2367 22.7063 26.8643L22.6638 26.8359L22.6666 26.9167C22.6666 28.3705 22.1079 29.7688 21.1059 30.8222C20.1039 31.8756 18.7353 32.5036 17.2833 32.5763L17 32.5834C15.4971 32.5834 14.0557 31.9863 12.993 30.9236C11.9303 29.8609 11.3333 28.4196 11.3333 26.9167L11.3347 26.8374L11.2936 26.8643C10.1 27.5573 8.69327 27.7872 7.34114 27.5103L7.0068 27.4309C6.29098 27.2376 5.62044 26.9047 5.03377 26.4512C4.44711 25.9978 3.95589 25.4328 3.58839 24.7888C2.84127 23.4889 2.63839 21.9462 3.02398 20.4973C3.40957 19.0483 4.35236 17.8105 5.6468 17.0539L5.74597 17L5.64539 16.9462C4.39674 16.2161 3.47362 15.0372 3.06428 13.6499C2.65493 12.2626 2.79019 10.7714 3.44247 9.48035L3.58414 9.21544C3.95167 8.57012 4.44336 8.00399 5.03084 7.5497C5.61832 7.09542 6.28995 6.76198 7.00698 6.56863C7.724 6.37528 8.47222 6.32585 9.20844 6.42319C9.94467 6.52053 10.6543 6.76272 11.2965 7.13577L11.3333 7.16127V7.08335C11.3333 5.62951 11.8921 4.23128 12.8941 3.17787C13.8961 2.12446 15.2646 1.49646 16.7166 1.42377L17 1.41669ZM17 12.75C15.8728 12.75 14.7918 13.1978 13.9948 13.9948C13.1977 14.7918 12.75 15.8728 12.75 17C12.75 18.1272 13.1977 19.2082 13.9948 20.0052C14.7918 20.8023 15.8728 21.25 17 21.25C18.1271 21.25 19.2081 20.8023 20.0052 20.0052C20.8022 19.2082 21.25 18.1272 21.25 17C21.25 15.8728 20.8022 14.7918 20.0052 13.9948C19.2081 13.1978 18.1271 12.75 17 12.75Z" fill="#055426"/>
</svg>
