<svg width="34" height="34" viewBox="0 0 34 34" fill="none" xmlns="http://www.w3.org/2000/svg">
<path d="M28.1889 22.6666H11.1889C9.87141 22.6666 9.21266 22.6666 8.6715 22.8111C7.95086 23.0044 7.29378 23.3839 6.76633 23.9116C6.23888 24.4393 5.85965 25.0966 5.66675 25.8173" stroke="#055426" stroke-width="2.125"/>
<path d="M11.3334 9.91665H22.6667M11.3334 14.875H18.4167M14.1667 31.1666C10.1604 31.1666 8.15583 31.1666 6.912 29.9214C5.66675 28.6776 5.66675 26.673 5.66675 22.6666V11.3333C5.66675 7.32698 5.66675 5.3224 6.912 4.07856C8.15583 2.83331 10.1604 2.83331 14.1667 2.83331H19.8334C23.8397 2.83331 25.8443 2.83331 27.0882 4.07856C28.3334 5.3224 28.3334 7.32698 28.3334 11.3333M19.8334 31.1666C23.8397 31.1666 25.8443 31.1666 27.0882 29.9214C28.3334 28.6776 28.3334 26.673 28.3334 22.6666V17" stroke="#055426" stroke-width="2.125" stroke-linecap="round"/>
</svg>
